<svg width="24" height="24" viewBox="0 0 32 32" fill="none" xmlns="http://www.w3.org/2000/svg">
<path fill-rule="evenodd" clip-rule="evenodd" d="M24.6361 15.0474C25.1139 14.7704 25.7257 14.9332 26.0027 15.411L28.8652 20.3485C29.1422 20.8263 28.9795 21.4381 28.5017 21.7151C28.0239 21.9921 27.412 21.8294 27.135 21.3516L24.2725 16.4141C23.9955 15.9363 24.1583 15.3244 24.6361 15.0474Z" fill="#2595FF"/>
<path fill-rule="evenodd" clip-rule="evenodd" d="M19.1016 17.6777C19.6455 17.5819 20.1641 17.9451 20.2599 18.489L21.1474 23.5265C21.2432 24.0704 20.88 24.589 20.3361 24.6849C19.7922 24.7807 19.2736 24.4174 19.1777 23.8735L18.2902 18.836C18.1944 18.2921 18.5577 17.7735 19.1016 17.6777Z" fill="#2595FF"/>
<path fill-rule="evenodd" clip-rule="evenodd" d="M12.8857 17.665C13.4297 17.7606 13.7931 18.2791 13.6975 18.823L12.81 23.873C12.7144 24.417 12.196 24.7804 11.652 24.6849C11.1081 24.5893 10.7446 24.0708 10.8402 23.5269L11.7277 18.4769C11.8233 17.9329 12.3418 17.5694 12.8857 17.665Z" fill="#2595FF"/>
<path fill-rule="evenodd" clip-rule="evenodd" d="M7.34963 15.0463C7.82803 15.3223 7.99215 15.9338 7.71619 16.4122L4.85369 21.3747C4.57774 21.8531 3.96621 22.0172 3.48781 21.7412C3.00941 21.4653 2.8453 20.8538 3.12125 20.3754L5.98375 15.4129C6.2597 14.9345 6.87123 14.7703 7.34963 15.0463Z" fill="#2595FF"/>
<path fill-rule="evenodd" clip-rule="evenodd" d="M3.3717 12.3345C3.80134 11.9875 4.43095 12.0545 4.77798 12.4841C6.76751 14.9474 10.3592 18 16 18C21.6409 18 25.2326 14.9474 27.2221 12.4841C27.5691 12.0545 28.1987 11.9875 28.6284 12.3345C29.058 12.6815 29.125 13.3112 28.778 13.7408C26.5675 16.4776 22.4592 20 16 20C9.54087 20 5.43256 16.4776 3.22209 13.7408C2.87507 13.3112 2.94205 12.6815 3.3717 12.3345Z" fill="#2595FF"/>
</svg>
